<?xml version="1.0" encoding="UTF-8"?>
<svg id="Layer_1" data-name="Layer 1" xmlns="http://www.w3.org/2000/svg" version="1.1" viewBox="0 0 1200 1200">
  <defs>
    <style>
      .cls-1 {
        fill: #211a4a;
      }

      .cls-1, .cls-2 {
        stroke-width: 0px;
      }

      .cls-2 {
        fill: #d1d4e3;
      }
    </style>
  </defs>
  <path class="cls-2" d="M585.47,1157.66c-151.58-2.29-284.46-55.5-393.09-164.67-109.86-110.41-164.69-244.6-163.35-400.67,1.31-152.33,56.61-283.24,164.05-390.39,112.96-112.65,251.03-167.28,410.55-163.07,148.69,3.92,276.8,59.7,381.15,165.51,112.74,114.32,166.94,253.53,161.39,414.14-5.06,146.52-60.53,272.63-164.54,375.94-108.71,107.98-240.91,161.11-396.15,163.21ZM826.7,487.06c-.46,0-.91,0-1.37,0,0-14.47-.11-28.95.08-43.42.05-3.56-1.03-4.43-4.5-4.41-9.72.03-19.54,1.16-29.14-.46-14.62-2.48-29.18-5.12-44-6.2-18.57-1.36-37.05-1.4-55.35,2.57-41.65,9.05-70.34,34.04-88.15,72.17-8,17.15-11.16,35.4-11.86,54.27-1.39,37.83,11.72,69.47,41.1,93.2,46.98,37.95,94.62,75.08,142.06,112.47,23.75,18.72,43.65,40.49,55.63,68.73,7.34,17.31,12.67,35.08,12.71,54.08.02,11.96-1.92,23.7-4.7,35.28-8.01,33.43-25.81,60.01-55.01,78.66-24.68,15.76-51.84,22.89-80.86,24.1-31.52,1.31-60.85-5.43-87.5-22.77-23.15-15.07-41.65-34.18-52.35-60.07-12.06-29.17-12.54-59.26-6.42-89.7,5.54-27.52,17.68-52.11,34.43-74.5,1.68-2.25,2.11-3.79-.65-5.26-.67-.36-1.32-.83-1.83-1.39-1.87-2.05-3.2-1.92-5.12.3-5.85,6.79-11.82,13.49-16.89,20.89-29.4,42.91-41.15,89.39-28.04,140.78,10.76,42.16,34.56,74.45,72.73,95.75,24.69,13.78,51.21,21.43,79.38,23.51,30.23,2.23,60.13.55,89.14-8.76,50.48-16.2,85.77-49.45,106.54-97.93,10.27-23.97,12.35-49.39,10.27-75.28-2.17-27.04-9.72-52.37-22.88-76.07-15.41-27.75-36.67-50.38-61.37-69.94-47.15-37.34-94.32-74.64-141.58-111.84-29.44-23.16-40.54-53.2-33.05-89.65,6.78-33.02,27.01-55.03,58.63-66.13,18.43-6.47,37.45-6.12,56.4-1.98,18.87,4.13,35.14,12.91,47.93,27.62,11.49,13.21,16.41,28.97,17.2,46.13.21,4.67,3.19,2.7,5.27,3.08,2.62.47,3.17-.84,3.15-3.28-.1-14.86-.05-29.71-.05-44.57ZM467.58,546.06c0-76.34,0-152.68-.03-229.03,0-2.6.06-4.11,3.54-4.1,47.11.13,94.21.03,141.32.12,20.4.04,39.19,15.22,44.19,35.08,1.78,7.08,1.49,14.24,1.33,21.38-.13,5.79,4.27,3,6.54,3.57,2.92.72,1.72-2.18,1.72-3.45.08-28.95.06-57.9.06-86.85,0-7.17.05-6.99-6.78-5.17-29.55,7.87-59.64,11.82-90.2,11.84-103.56.07-207.12.07-310.68,0-26.35-.02-51.48,4.63-75,17.14-29.58,15.74-47.51,38.99-49.88,73.33-1.69,24.6,7.76,44.85,22.72,63.27,2.36,2.91,3.64-.67,5.39-1.21,1.42-.44,2.72-1.24,1.57-3.37-1.64-3.02-3.05-6.18-4.32-9.39-5.95-15.1-9.57-30.65-6.05-46.84,5.27-24.24,19.62-42.14,40.62-54.71,17.81-10.67,37.67-14.35,58.07-14.47,54.02-.32,108.04-.13,162.06-.25,2.98,0,3.2,1.19,3.19,3.6-.05,152.81-.02,305.62-.07,458.44,0,20.7-13.7,39.31-33.28,46.02-7.43,2.55-15.07,2.5-22.75,2.52-1.05,0-2.78-.64-3.03.72-.4,2.23-.63,4.73,0,6.83.45,1.48,2.75.64,4.19.64,53.51.04,107.02.03,160.52.03,1.02,0,2.05,0,3.07,0,.87,0,1.31-.38,1.57-1.29,1.39-4.83-.17-6.95-5.19-6.96-1.54,0-3.07,0-4.61,0-9.39,0-18.23-2.12-26.31-6.99-16.29-9.84-23.47-24.7-23.48-43.33-.04-75.7-.02-151.4-.02-227.11ZM1018.67,441.6c-.55-1.16.04-1.6.35-2.1,4.08-6.63,8.07-13.32,12.33-19.84,1.68-2.57.26-4.47-.81-6.33-1.16-2.01-2.72-.15-3.91.33-8.62,3.5-17.15,7.2-25.77,10.68-2.32.94-3.17,1.79-1.95,4.4,1.05,2.24,1.76,3.35,4.38,1.93,2.56-1.39,5.37-2.32,8.1-3.39,3.18-1.25,6.19-3.03,10.14-3.8-4.76,7.7-9.08,14.93-13.68,21.99-1.7,2.61-.06,4.46.92,6.28,1.15,2.12,2.69.02,3.85-.45,8.62-3.48,17.15-7.2,25.79-10.64,2.31-.92,3.22-1.65,2.07-4.29-1.11-2.53-2.12-3.2-4.76-1.98-5.61,2.58-11.36,4.83-17.03,7.21ZM569.83,145.27c-.8-.97-1.69-1.99-2.52-3.05-4.16-5.36-8.5-10.58-12.35-16.15-1.92-2.77-4.36-2.59-6.69-2.03-2.22.53-.93,2.85-.9,4.29.19,9.22.63,18.43.8,27.64.05,2.52.79,3.21,3.34,3.13,2.87-.09,3.74-.95,3.46-3.85-.45-4.71-.52-9.46-.64-14.19-.04-1.51-.52-3.14.4-4.86,5.38,6.98,10.61,13.6,15.65,20.37,1.73,2.33,3.9,1.6,5.91,1.29,2.42-.39,1.12-2.51,1.1-3.77-.2-9.47-.71-18.94-.79-28.41-.03-3.25-1.86-2.57-3.73-2.67-2.09-.11-3.23.15-3.13,2.84.24,6.38.08,12.78.08,19.42ZM821.51,210.06c7.35,1.17,11.2-.56,13.31-5.74,1.94-4.78.02-9.7-5.43-13.32-2.97-1.98-6.16-3.63-9.17-5.55-1.48-.94-2.26-.91-3.23.79-4.98,8.77-10.02,17.51-15.24,26.14-1.44,2.38-.16,2.97,1.51,3.92,1.72.98,3.11,2.19,4.49-.57,1.68-3.34,3.74-6.48,5.81-10.02,2.71,3.7,1.69,7.42,1.94,10.89.37,5.06,1.77,9.33,7.13,11.08,1.45.47,3.32,1.83,4.16-.63.63-1.84,1.7-4.1-1.71-4.84-1.77-.38-2.58-1.93-2.74-3.76-.24-2.66-.53-5.32-.83-8.38ZM714.41,143.57c.95-1.93-.33-2.14-1.46-2.44-6.05-1.56-12.11-3.08-18.14-4.7-1.37-.37-2-.28-2.4,1.32-2.5,10.16-5.1,20.29-7.76,30.4-.33,1.27-.18,1.97,1.05,2.29,6.29,1.63,12.59,3.26,18.9,4.83,2.94.73,2.33-2.04,3.08-3.37,1-1.76-.43-2.2-1.7-2.53-3.82-.99-7.65-2.01-11.5-2.88-1.76-.4-2.35-1.2-1.79-2.92.35-1.09.64-2.21.86-3.34.4-2.07,1.12-3.07,3.58-2.19,3.11,1.11,6.43,1.62,9.59,2.6,2.35.72,2.71-.64,3.23-2.36.56-1.87.58-3.14-1.74-3.64-3.24-.7-6.4-1.81-9.66-2.34-3.45-.55-2.37-2.64-1.75-4.45.63-1.82-.09-5.16,3.93-3.75,2.88,1.01,5.99,1.33,8.86,2.37,3.28,1.18,4.85.36,4.83-2.92ZM777.89,164.95c.05-1.45-1.28-1.47-2.11-1.81-5.29-2.21-10.68-4.2-15.91-6.53-2.23-.99-3.02-.51-3.88,1.67-3.6,9.13-7.32,18.21-11.16,27.24-.96,2.25-.3,2.97,1.76,3.74,5.25,1.97,10.54,3.9,15.54,6.41,3.39,1.7,3.84-.55,4.88-2.51,1.46-2.76-1.25-2.48-2.39-3.06-2.27-1.14-4.7-1.96-7.06-2.93-5.26-2.16-5.11-2.11-2.97-7.54.91-2.31,1.9-2.45,3.91-1.51,2.88,1.34,5.98,2.24,8.82,3.66,2.44,1.22,2.95-.03,3.78-1.91.84-1.91.8-2.97-1.34-3.75-3.23-1.17-6.36-2.64-9.59-3.81-1.7-.61-2.02-1.36-1.39-3.08,2.06-5.64,2-5.66,7.71-3.33,2.12.86,4.25,1.71,6.38,2.56,2.8,1.11,5.19-.57,5.02-3.52ZM510.85,163.05c-6.57-10.07-13.12-20.07-19.64-30.1-1.31-2.01-3.01-.52-4.51-.54-1.7-.02-2.15,1.19-2.48,2.77-2.09,9.97-4.37,19.9-6.46,29.87-.32,1.51-1.67,3.58-.34,4.52.98.69,3.15-.12,4.73-.48,2.37-.54,1.89-2.81,2.15-4.38.48-2.88,1.12-4.98,4.77-5.05,2.76-.05,5.56-.77,8.23-1.58,1.94-.59,2.95.04,3.62,1.64,1.9,4.55,4.89,6.22,9.93,3.32ZM954.5,350.45c6.07-10.45,12.06-20.8,18.12-31.12,1.01-1.73-.24-2.57-1.06-3.64-.83-1.08-1.41-2.46-3.31-1.72-1.53.59-3.2.85-4.8,1.27-9.96,2.58-19.92,5.16-29.98,7.77,3.38,5.42,3.58,5.84,5.61,4.87,5.11-2.44,8.29-.59,10.78,3.9.8,1.44,1.91,2.72,3.02,3.95,1.38,1.52,1.51,2.76.32,4.65-3.22,5.12-3.09,5.21,1.3,10.08ZM909.21,293c7.18.18,11.6-6.13,8.74-12.67-1.22-2.79-2.86-5.4-4.28-8.11-1.09-2.07-.9-3.99,1-5.47,2-1.56,4.1-1.27,5.96.23,2.19,1.77,3.71,3.85,2.53,6.95-1.15,3,1.78,3.48,3.25,4.18,1.83.87,2.02-1.47,2.43-2.56,1.75-4.64-.29-9.58-5.25-13.22-4.5-3.3-9.98-3.31-13.75-.01-3.88,3.39-4.34,7.28-1.49,12.79,1.17,2.26,2.5,4.45,3.58,6.75.68,1.45.63,3-.68,4.24-1.36,1.29-2.85,1.42-4.57.69-4.04-1.72-6.36-5.84-4.85-9.93,1.3-3.5-1.79-3.6-3.19-4.57-1.69-1.17-2.1,1.05-2.61,2.1-3.61,7.47,4.14,18.4,13.15,18.62ZM632.9,153.15c-.27-.06-.55-.13-.82-.19-.33-1.86-.65-3.72-.98-5.58-1.21-6.78-2.36-13.57-3.66-20.32-.74-3.82-4.06-2.47-6.18-2.35-1.9.11-.78,2.21-.57,3.39,1.67,9.41,3.46,18.8,5.12,28.22.48,2.72,1.1,4.96,4.66,4.46,1.1-.15,2.29.15,3.41.38,1.32.27,2.09-.06,2.73-1.35,4.94-10.06,9.96-20.08,14.93-30.12.31-.63.83-1.35-.11-1.96-2.01-1.29-6.2-.07-7.27,2.16-3.75,7.75-7.5,15.51-11.24,23.26ZM434.44,150.45c.05-3.88-1.08-4.72-4.61-3.5-6.98,2.42-13.92,4.94-20.93,7.25-2.28.75-3.42,1.29-2.35,4.2.99,2.69,2.1,2.63,4.2,1.68,1.5-.69,3.2-.94,4.67-1.67,2.19-1.08,2.99-.31,3.69,1.83,2.42,7.38,5.2,14.65,7.51,22.06.9,2.9,2.26,2.31,4.23,1.57,1.86-.69,3.58-.87,2.41-3.8-2.17-5.44-3.86-11.06-5.75-16.61-.86-2.53-2.89-5.41-2.28-7.51.75-2.55,4.73-2.2,7.19-3.38,1.02-.49,2.36-.52,2.02-2.12ZM1024.73,499.1c2.01-.57,3.85-1.11,5.69-1.62,8.36-2.28,16.7-4.65,25.1-6.76,2.43-.61,2.08-1.83,1.29-3.28-.69-1.27.52-4.28-2.58-3.47-10.24,2.66-20.43,5.48-30.64,8.25-1.16.31-1.85,1-1.2,2.23.8,1.53.11,3.89,2.34,4.65ZM1004.42,365.13c-.69.37-1.14.6-1.58.85-8.93,5.19-17.82,10.43-26.79,15.54-2.64,1.5-.62,2.83.08,3.93.68,1.08.68,3.69,3.36,2.1,8.88-5.26,17.84-10.4,26.76-15.59.86-.5,2.02-.99,1.22-2.3-.95-1.56-1.53-3.42-3.04-4.54Z"/>
  <path class="cls-1" d="M826.7,487.06c0,14.86-.05,29.72.05,44.57.02,2.44-.53,3.75-3.15,3.28-2.08-.38-5.06,1.59-5.27-3.08-.79-17.16-5.71-32.92-17.2-46.13-12.8-14.71-29.06-23.49-47.93-27.62-18.95-4.15-37.98-4.5-56.4,1.98-31.62,11.1-51.84,33.11-58.63,66.13-7.49,36.45,3.62,66.49,33.05,89.65,47.26,37.19,94.43,74.5,141.58,111.84,24.7,19.56,45.96,42.19,61.37,69.94,13.16,23.7,20.7,49.03,22.88,76.07,2.08,25.89,0,51.31-10.27,75.28-20.77,48.48-56.05,81.72-106.54,97.93-29.01,9.31-58.91,10.99-89.14,8.76-28.17-2.08-54.69-9.72-79.38-23.51-38.17-21.31-61.98-53.6-72.73-95.75-13.11-51.39-1.36-97.87,28.04-140.78,5.07-7.4,11.04-14.1,16.89-20.89,1.92-2.22,3.25-2.34,5.12-.3.51.56,1.16,1.03,1.83,1.39,2.76,1.47,2.33,3.01.65,5.26-16.75,22.38-28.89,46.97-34.43,74.5-6.12,30.44-5.64,60.53,6.42,89.7,10.7,25.89,29.21,45,52.35,60.07,26.65,17.35,55.98,24.09,87.5,22.77,29.02-1.21,56.19-8.34,80.86-24.1,29.2-18.65,47-45.24,55.01-78.66,2.77-11.58,4.72-23.32,4.7-35.28-.04-19-5.36-36.78-12.71-54.08-11.98-28.24-31.88-50-55.63-68.73-47.43-37.39-95.07-74.52-142.06-112.47-29.39-23.74-42.5-55.38-41.1-93.2.7-18.87,3.85-37.12,11.86-54.27,17.8-38.13,46.5-63.13,88.15-72.17,18.3-3.98,36.79-3.93,55.35-2.57,14.82,1.08,29.38,3.73,44,6.2,9.59,1.62,19.42.5,29.14.46,3.47-.01,4.55.86,4.5,4.41-.19,14.47-.08,28.94-.08,43.42.46,0,.91,0,1.37,0Z"/>
  <path class="cls-1" d="M467.58,546.06c0,75.7-.02,151.4.02,227.11,0,18.63,7.19,33.5,23.48,43.33,8.08,4.88,16.92,6.99,26.31,6.99,1.54,0,3.07,0,4.61,0,5.03,0,6.58,2.13,5.19,6.96-.26.9-.69,1.28-1.57,1.29-1.02,0-2.05,0-3.07,0-53.51,0-107.02,0-160.52-.03-1.44,0-3.74.84-4.19-.64-.63-2.1-.4-4.6,0-6.83.25-1.37,1.98-.72,3.03-.72,7.68-.02,15.32.03,22.75-2.52,19.58-6.71,33.27-25.32,33.28-46.02.05-152.81.02-305.62.07-458.44,0-2.41-.22-3.61-3.19-3.6-54.02.12-108.04-.07-162.06.25-20.39.12-40.25,3.8-58.07,14.47-21,12.58-35.35,30.48-40.62,54.71-3.52,16.19.1,31.74,6.05,46.84,1.26,3.2,2.68,6.36,4.32,9.39,1.15,2.13-.15,2.93-1.57,3.37-1.75.54-3.03,4.12-5.39,1.21-14.96-18.42-24.42-38.67-22.72-63.27,2.37-34.34,20.3-57.6,49.88-73.33,23.52-12.51,48.65-17.16,75-17.14,103.56.07,207.12.07,310.68,0,30.56-.02,60.66-3.97,90.2-11.84,6.83-1.82,6.78-2,6.78,5.17,0,28.95.02,57.9-.06,86.85,0,1.26,1.2,4.17-1.72,3.45-2.26-.56-6.67,2.22-6.54-3.57.16-7.14.45-14.29-1.33-21.38-5-19.86-23.79-35.04-44.19-35.08-47.11-.09-94.21.01-141.32-.12-3.48,0-3.54,1.5-3.54,4.1.04,76.34.03,152.68.03,229.03Z"/>
  <path class="cls-1" d="M1018.67,441.6c5.67-2.38,11.43-4.63,17.03-7.21,2.64-1.22,3.66-.55,4.76,1.98,1.16,2.65.24,3.37-2.07,4.29-8.64,3.44-17.16,7.17-25.79,10.64-1.16.47-2.7,2.57-3.85.45-.99-1.82-2.63-3.66-.92-6.28,4.6-7.05,8.92-14.29,13.68-21.99-3.95.77-6.96,2.55-10.14,3.8-2.73,1.07-5.54,2-8.1,3.39-2.61,1.42-3.32.31-4.38-1.93-1.22-2.61-.37-3.46,1.95-4.4,8.62-3.48,17.16-7.18,25.77-10.68,1.19-.48,2.76-2.33,3.91-.33,1.07,1.85,2.48,3.76.81,6.33-4.26,6.52-8.25,13.21-12.33,19.84-.31.5-.9.94-.35,2.1Z"/>
  <path class="cls-1" d="M569.83,145.27c0-6.64.17-13.04-.08-19.42-.1-2.68,1.04-2.95,3.13-2.84,1.87.1,3.7-.58,3.73,2.67.07,9.47.59,18.94.79,28.41.03,1.26,1.33,3.39-1.1,3.77-2.01.32-4.18,1.04-5.91-1.29-5.04-6.77-10.27-13.4-15.65-20.37-.92,1.73-.44,3.35-.4,4.86.11,4.74.18,9.49.64,14.19.28,2.9-.59,3.76-3.46,3.85-2.55.08-3.29-.61-3.34-3.13-.17-9.22-.61-18.43-.8-27.64-.03-1.44-1.32-3.76.9-4.29,2.33-.56,4.77-.75,6.69,2.03,3.85,5.57,8.2,10.79,12.35,16.15.83,1.07,1.72,2.08,2.52,3.05Z"/>
  <path class="cls-1" d="M821.51,210.06c.31,3.06.6,5.72.83,8.38.16,1.83.98,3.38,2.74,3.76,3.42.73,2.34,3,1.71,4.84-.84,2.47-2.7,1.11-4.16.63-5.36-1.75-6.76-6.02-7.13-11.08-.25-3.47.77-7.18-1.94-10.89-2.07,3.53-4.13,6.68-5.81,10.02-1.39,2.76-2.77,1.55-4.49.57-1.67-.95-2.95-1.53-1.51-3.92,5.22-8.63,10.26-17.37,15.24-26.14.97-1.7,1.75-1.73,3.23-.79,3.02,1.92,6.2,3.57,9.17,5.55,5.45,3.62,7.37,8.54,5.43,13.32-2.11,5.18-5.96,6.91-13.31,5.74ZM825.17,204.55c1.91-.06,3.38-1.71,3.78-4.18.35-2.18-5.28-7.54-7.43-7.35-.59.05-4.88,6.63-4.87,7.47.01,1.14,5.49,4.02,8.53,4.06Z"/>
  <path class="cls-1" d="M714.41,143.57c.03,3.28-1.55,4.11-4.83,2.92-2.86-1.04-5.98-1.36-8.86-2.37-4.02-1.41-3.3,1.93-3.93,3.75-.62,1.81-1.7,3.9,1.75,4.45,3.26.52,6.42,1.64,9.66,2.34,2.32.5,2.3,1.76,1.74,3.64-.52,1.72-.88,3.08-3.23,2.36-3.16-.97-6.48-1.48-9.59-2.6-2.46-.88-3.18.12-3.58,2.19-.22,1.13-.51,2.24-.86,3.34-.56,1.72.03,2.52,1.79,2.92,3.85.87,7.68,1.88,11.5,2.88,1.27.33,2.7.76,1.7,2.53-.75,1.33-.15,4.1-3.08,3.37-6.31-1.57-12.6-3.2-18.9-4.83-1.23-.32-1.39-1.02-1.05-2.29,2.66-10.12,5.26-20.25,7.76-30.4.4-1.61,1.03-1.69,2.4-1.32,6.03,1.61,12.09,3.13,18.14,4.7,1.13.29,2.42.5,1.46,2.44Z"/>
  <path class="cls-1" d="M777.89,164.96c.17,2.94-2.22,4.62-5.02,3.51-2.13-.85-4.26-1.69-6.38-2.56-5.71-2.32-5.64-2.3-7.71,3.33-.63,1.71-.3,2.46,1.39,3.08,3.23,1.17,6.36,2.64,9.59,3.81,2.14.78,2.18,1.84,1.34,3.75-.83,1.87-1.34,3.13-3.78,1.91-2.84-1.42-5.94-2.32-8.82-3.66-2.01-.94-3-.81-3.91,1.51-2.14,5.44-2.29,5.38,2.97,7.54,2.36.97,4.79,1.78,7.06,2.93,1.14.57,3.84.3,2.39,3.06-1.04,1.97-1.49,4.22-4.88,2.51-5-2.51-10.29-4.44-15.54-6.41-2.06-.77-2.71-1.49-1.76-3.74,3.84-9.03,7.56-18.11,11.16-27.24.86-2.17,1.64-2.66,3.88-1.67,5.23,2.33,10.62,4.32,15.91,6.53.83.34,2.15.36,2.1,1.81Z"/>
  <path class="cls-1" d="M510.85,163.05c-5.04,2.9-8.03,1.23-9.93-3.32-.67-1.6-1.68-2.22-3.62-1.64-2.67.81-5.47,1.53-8.23,1.58-3.65.07-4.29,2.16-4.77,5.05-.26,1.57.22,3.84-2.15,4.38-1.59.36-3.75,1.18-4.73.48-1.33-.94.02-3.01.34-4.52,2.09-9.97,4.37-19.9,6.46-29.87.33-1.58.78-2.78,2.48-2.77,1.5.01,3.2-1.47,4.51.54,6.52,10.02,13.07,20.03,19.64,30.1ZM489.13,141.09c-.88,4.22-1.61,7.69-2.32,11.16-.12.61-.17,1.72.38,1.65,2.76-.35,5.53-.8,8.2-1.56,1.02-.29.06-1.3-.28-1.86-1.8-2.9-3.66-5.77-5.98-9.39Z"/>
  <path class="cls-1" d="M954.5,350.45c-4.39-4.87-4.52-4.95-1.3-10.08,1.19-1.9,1.06-3.13-.32-4.65-1.11-1.23-2.22-2.52-3.02-3.95-2.49-4.49-5.67-6.34-10.78-3.9-2.03.97-2.23.55-5.61-4.87,10.06-2.61,20.02-5.19,29.98-7.77,1.6-.42,3.27-.67,4.8-1.27,1.9-.74,2.49.64,3.31,1.72.81,1.07,2.07,1.91,1.06,3.64-6.06,10.32-12.05,20.68-18.12,31.12ZM951.53,324.59c1.8,2.37,3.42,4.47,5,6.62.81,1.1,1.44,1.27,2.2-.05,1.83-3.18,3.72-6.33,6.04-10.26-4.95,1.38-8.95,2.5-13.23,3.69Z"/>
  <path class="cls-1" d="M909.21,293c-9.02-.22-16.77-11.15-13.15-18.62.51-1.05.92-3.27,2.61-2.1,1.4.97,4.49,1.07,3.19,4.57-1.52,4.08.81,8.2,4.85,9.93,1.71.73,3.2.6,4.57-.69,1.31-1.24,1.36-2.78.68-4.24-1.08-2.3-2.41-4.49-3.58-6.75-2.85-5.51-2.39-9.4,1.49-12.79,3.77-3.3,9.24-3.29,13.75.01,4.95,3.64,7,8.58,5.25,13.22-.41,1.1-.6,3.43-2.43,2.56-1.48-.7-4.4-1.18-3.25-4.18,1.18-3.1-.34-5.18-2.53-6.95-1.86-1.5-3.97-1.79-5.96-.23-1.89,1.48-2.08,3.4-1,5.47,1.42,2.71,3.06,5.32,4.28,8.11,2.86,6.54-1.56,12.85-8.74,12.67Z"/>
  <path class="cls-1" d="M632.9,153.15c3.75-7.75,7.49-15.51,11.24-23.26,1.08-2.22,5.27-3.45,7.27-2.16.94.61.42,1.33.11,1.96-4.97,10.04-9.99,20.06-14.93,30.12-.63,1.29-1.41,1.62-2.73,1.35-1.12-.23-2.31-.53-3.41-.38-3.55.49-4.17-1.75-4.66-4.46-1.67-9.41-3.45-18.8-5.12-28.22-.21-1.18-1.32-3.29.57-3.39,2.12-.12,5.44-1.47,6.18,2.35,1.3,6.76,2.45,13.55,3.66,20.32.33,1.86.65,3.72.98,5.58.27.06.55.13.82.19Z"/>
  <path class="cls-1" d="M434.44,150.45c.34,1.6-1,1.63-2.02,2.12-2.46,1.18-6.44.83-7.19,3.38-.62,2.1,1.41,4.98,2.28,7.51,1.89,5.55,3.58,11.17,5.75,16.61,1.17,2.93-.54,3.11-2.41,3.8-1.97.73-3.33,1.33-4.23-1.57-2.31-7.41-5.09-14.68-7.51-22.06-.7-2.13-1.5-2.91-3.69-1.83-1.47.73-3.17.98-4.67,1.67-2.09.96-3.2,1.02-4.2-1.68-1.07-2.9.07-3.44,2.35-4.2,7.01-2.32,13.96-4.83,20.93-7.25,3.53-1.23,4.66-.38,4.61,3.5Z"/>
  <path class="cls-1" d="M1024.73,499.1c-2.23-.76-1.54-3.12-2.34-4.65-.65-1.24.04-1.92,1.2-2.23,10.21-2.77,20.41-5.59,30.64-8.25,3.1-.8,1.89,2.21,2.58,3.47.79,1.45,1.14,2.67-1.29,3.28-8.4,2.11-16.74,4.48-25.1,6.76-1.84.5-3.68,1.04-5.69,1.62Z"/>
  <path class="cls-1" d="M1004.42,365.13c1.51,1.12,2.09,2.98,3.04,4.54.8,1.31-.36,1.8-1.22,2.3-8.92,5.2-17.87,10.34-26.76,15.59-2.68,1.59-2.67-1.02-3.36-2.1-.7-1.1-2.71-2.43-.08-3.93,8.97-5.11,17.86-10.35,26.79-15.54.44-.25.89-.48,1.58-.85Z"/>
  <path class="cls-2" d="M825.17,204.55c-3.04-.03-8.52-2.91-8.53-4.06,0-.84,4.28-7.42,4.87-7.47,2.15-.19,7.78,5.17,7.43,7.35-.39,2.47-1.87,4.12-3.78,4.18Z"/>
  <path class="cls-2" d="M489.13,141.09c2.32,3.62,4.18,6.49,5.98,9.39.35.56,1.3,1.57.28,1.86-2.67.76-5.44,1.21-8.2,1.56-.55.07-.51-1.04-.38-1.65.71-3.48,1.44-6.95,2.32-11.16Z"/>
  <path class="cls-2" d="M951.53,324.59c4.28-1.19,8.28-2.31,13.23-3.69-2.31,3.92-4.2,7.07-6.04,10.26-.76,1.32-1.39,1.15-2.2.05-1.57-2.14-3.2-4.24-5-6.62Z"/>
</svg>